#N canvas 0 595 863 494 12;
#X msg 178 232 disconnect;
#X obj 148 261 netsend -u -b;
#X obj 165 182 loadbang;
#X text 251 262 send as UDP \, binary;
#X msg 148 41 400 420;
#X msg 165 206 connect localhost 8000;
#X msg 148 65 5 \$1;
#X msg 215 41 0 0;
#X msg 190 68 5 \$2;
#X obj 148 148 oscformat instrument;
#X obj 296 150 oscformat instrument_12tet;
#X obj 503 39 vsl 19 162 0 1 0 0 empty empty empty 0 -9 0 12 #fcfcfc #000000 #000000 0 1;
#X obj 573 39 vsl 19 162 0 1 0 0 empty empty empty 0 -9 0 12 #fcfcfc #000000 #000000 0 1;
#X obj 573 234 oscformat morph_factor;
#X obj 488 288 oscformat volume;
#X obj 638 -19 tgl 19 0 empty empty empty 0 -10 0 12 #fcfcfc #000000 #000000 0 1;
#X msg 635 41 1;
#X obj 635 65 + 1;
#X floatatom 635 88 5 0 0 0 - - - 0;
#X obj 636 134 cos;
#X floatatom 636 158 5 0 0 0 - - - 0;
#X obj 635 111 / 100;
#X obj 636 181 / 2;
#X obj 636 205 + 0.5;
#X obj 635 17 metro 20;
#X msg 346 36 0 0;
#X msg 279 36 600 640;
#X msg 279 60 6 \$1;
#X msg 321 63 6 \$2;
#X connect 0 0 1 0;
#X connect 2 0 5 0;
#X connect 4 0 6 0;
#X connect 4 0 8 0;
#X connect 5 0 1 0;
#X connect 6 0 9 0;
#X connect 7 0 6 0;
#X connect 7 0 8 0;
#X connect 8 0 10 0;
#X connect 9 0 1 0;
#X connect 10 0 1 0;
#X connect 11 0 14 0;
#X connect 12 0 13 0;
#X connect 13 0 1 0;
#X connect 14 0 1 0;
#X connect 15 0 17 1;
#X connect 15 0 24 0;
#X connect 16 0 17 0;
#X connect 17 0 18 0;
#X connect 18 0 17 1;
#X connect 18 0 21 0;
#X connect 19 0 20 0;
#X connect 20 0 22 0;
#X connect 21 0 19 0;
#X connect 22 0 23 0;
#X connect 23 0 12 0;
#X connect 24 0 16 0;
#X connect 25 0 27 0;
#X connect 25 0 28 0;
#X connect 26 0 27 0;
#X connect 26 0 28 0;
#X connect 27 0 9 0;
#X connect 28 0 10 0;
